<?xml version="1.0" encoding="UTF-8" standalone="no"?>
<!DOCTYPE svg PUBLIC "-//W3C//DTD SVG 1.1//EN"
 "http://www.w3.org/Graphics/SVG/1.1/DTD/svg11.dtd">
<!-- Generated by graphviz version 2.38.0 (20140413.2041)
 -->
<!-- Title: G Pages: 1 -->
<svg width="3233pt" height="1206pt"
 viewBox="0.00 0.00 3233.20 1206.35" xmlns="http://www.w3.org/2000/svg" xmlns:xlink="http://www.w3.org/1999/xlink">
<g id="graph0" class="graph" transform="scale(1 1) rotate(0) translate(21.6 1184.75)">
<title>G</title>
<polygon fill="#111111" stroke="none" points="-21.6,21.6 -21.6,-1184.75 3211.6,-1184.75 3211.6,21.6 -21.6,21.6"/>
<!-- app.service.ts -->
<g id="node1" class="node"><title>app.service.ts</title>
<path fill="none" stroke="#c6c5fe" d="M189.333,-823.005C189.333,-823.005 99.6667,-823.005 99.6667,-823.005 95.8333,-823.005 92,-819.171 92,-815.338 92,-815.338 92,-807.671 92,-807.671 92,-803.838 95.8333,-800.005 99.6667,-800.005 99.6667,-800.005 189.333,-800.005 189.333,-800.005 193.167,-800.005 197,-803.838 197,-807.671 197,-807.671 197,-815.338 197,-815.338 197,-819.171 193.167,-823.005 189.333,-823.005"/>
<text text-anchor="middle" x="144.5" y="-807.805" font-family="Arial" font-size="14.00" fill="#c6c5fe">app.service.ts</text>
</g>
<!-- server/edu.node.ts -->
<g id="node2" class="node"><title>server/edu.node.ts</title>
<path fill="none" stroke="#c6c5fe" d="M360.333,-836.005C360.333,-836.005 240.667,-836.005 240.667,-836.005 236.833,-836.005 233,-832.171 233,-828.338 233,-828.338 233,-820.671 233,-820.671 233,-816.838 236.833,-813.005 240.667,-813.005 240.667,-813.005 360.333,-813.005 360.333,-813.005 364.167,-813.005 368,-816.838 368,-820.671 368,-820.671 368,-828.338 368,-828.338 368,-832.171 364.167,-836.005 360.333,-836.005"/>
<text text-anchor="middle" x="300.5" y="-820.805" font-family="Arial" font-size="14.00" fill="#c6c5fe">server/edu.node.ts</text>
</g>
<!-- app.service.ts&#45;&gt;server/edu.node.ts -->
<g id="edge1" class="edge"><title>app.service.ts&#45;&gt;server/edu.node.ts</title>
<path fill="none" stroke="#757575" d="M197.208,-815.869C205.436,-816.564 214.096,-817.295 222.753,-818.026"/>
<polygon fill="#757575" stroke="#757575" points="222.628,-821.528 232.887,-818.881 223.216,-814.552 222.628,-821.528"/>
</g>
<!-- common/entities/config/node&#45;configuration.model.ts -->
<g id="node5" class="node"><title>common/entities/config/node&#45;configuration.model.ts</title>
<path fill="none" stroke="#c6c5fe" d="M1923.33,-919.005C1923.33,-919.005 1594.67,-919.005 1594.67,-919.005 1590.83,-919.005 1587,-915.171 1587,-911.338 1587,-911.338 1587,-903.671 1587,-903.671 1587,-899.838 1590.83,-896.005 1594.67,-896.005 1594.67,-896.005 1923.33,-896.005 1923.33,-896.005 1927.17,-896.005 1931,-899.838 1931,-903.671 1931,-903.671 1931,-911.338 1931,-911.338 1931,-915.171 1927.17,-919.005 1923.33,-919.005"/>
<text text-anchor="middle" x="1759" y="-903.805" font-family="Arial" font-size="14.00" fill="#c6c5fe">common/entities/config/node&#45;configuration.model.ts</text>
</g>
<!-- server/edu.node.ts&#45;&gt;common/entities/config/node&#45;configuration.model.ts -->
<g id="edge84" class="edge"><title>server/edu.node.ts&#45;&gt;common/entities/config/node&#45;configuration.model.ts</title>
<path fill="none" stroke="#757575" d="M304.478,-836.36C313.288,-868.673 342.545,-958.411 404,-996.505 818.453,-1253.41 1027.19,-1165.77 1500,-1046.5 1594.38,-1022.7 1691.79,-956.84 1734.99,-925.081"/>
<polygon fill="#757575" stroke="#757575" points="1737.19,-927.805 1743.13,-919.028 1733.01,-922.188 1737.19,-927.805"/>
</g>
<!-- common/logger/server&#45;logger.interface.ts -->
<g id="node12" class="node"><title>common/logger/server&#45;logger.interface.ts</title>
<path fill="none" stroke="#cfffac" d="M1890.33,-796.005C1890.33,-796.005 1627.67,-796.005 1627.67,-796.005 1623.83,-796.005 1620,-792.171 1620,-788.338 1620,-788.338 1620,-780.671 1620,-780.671 1620,-776.838 1623.83,-773.005 1627.67,-773.005 1627.67,-773.005 1890.33,-773.005 1890.33,-773.005 1894.17,-773.005 1898,-776.838 1898,-780.671 1898,-780.671 1898,-788.338 1898,-788.338 1898,-792.171 1894.17,-796.005 1890.33,-796.005"/>
<text text-anchor="middle" x="1759" y="-780.805" font-family="Arial" font-size="14.00" fill="#cfffac">common/logger/server&#45;logger.interface.ts</text>
</g>
<!-- server/edu.node.ts&#45;&gt;common/logger/server&#45;logger.interface.ts -->
<g id="edge85" class="edge"><title>server/edu.node.ts&#45;&gt;common/logger/server&#45;logger.interface.ts</title>
<path fill="none" stroke="#757575" d="M368.347,-822.669C589.107,-816.606 1298.45,-797.125 1609.49,-788.583"/>
<polygon fill="#757575" stroke="#757575" points="1610.03,-792.07 1619.93,-788.296 1609.84,-785.072 1610.03,-792.07"/>
</g>
<!-- common/network/api/basic.api.register.ts -->
<g id="node14" class="node"><title>common/network/api/basic.api.register.ts</title>
<path fill="none" stroke="#c6c5fe" d="M670.333,-988.005C670.333,-988.005 411.667,-988.005 411.667,-988.005 407.833,-988.005 404,-984.171 404,-980.338 404,-980.338 404,-972.671 404,-972.671 404,-968.838 407.833,-965.005 411.667,-965.005 411.667,-965.005 670.333,-965.005 670.333,-965.005 674.167,-965.005 678,-968.838 678,-972.671 678,-972.671 678,-980.338 678,-980.338 678,-984.171 674.167,-988.005 670.333,-988.005"/>
<text text-anchor="middle" x="541" y="-972.805" font-family="Arial" font-size="14.00" fill="#c6c5fe">common/network/api/basic.api.register.ts</text>
</g>
<!-- server/edu.node.ts&#45;&gt;common/network/api/basic.api.register.ts -->
<g id="edge86" class="edge"><title>server/edu.node.ts&#45;&gt;common/network/api/basic.api.register.ts</title>
<path fill="none" stroke="#757575" d="M308.021,-836.087C322.179,-860.117 358.175,-915.478 404,-943.505 417.092,-951.512 432.003,-957.576 447.038,-962.17"/>
<polygon fill="#757575" stroke="#757575" points="446.343,-965.611 456.919,-964.982 448.259,-958.878 446.343,-965.611"/>
</g>
<!-- common/services/common/identity.service.ts -->
<g id="node17" class="node"><title>common/services/common/identity.service.ts</title>
<path fill="none" stroke="#c6c5fe" d="M1421.33,-720.005C1421.33,-720.005 1135.67,-720.005 1135.67,-720.005 1131.83,-720.005 1128,-716.171 1128,-712.338 1128,-712.338 1128,-704.671 1128,-704.671 1128,-700.838 1131.83,-697.005 1135.67,-697.005 1135.67,-697.005 1421.33,-697.005 1421.33,-697.005 1425.17,-697.005 1429,-700.838 1429,-704.671 1429,-704.671 1429,-712.338 1429,-712.338 1429,-716.171 1425.17,-720.005 1421.33,-720.005"/>
<text text-anchor="middle" x="1278.5" y="-704.805" font-family="Arial" font-size="14.00" fill="#c6c5fe">common/services/common/identity.service.ts</text>
</g>
<!-- server/edu.node.ts&#45;&gt;common/services/common/identity.service.ts -->
<g id="edge87" class="edge"><title>server/edu.node.ts&#45;&gt;common/services/common/identity.service.ts</title>
<path fill="none" stroke="#757575" d="M368.164,-813.608C449.607,-800.536 591.667,-778.51 714,-763.505 854.756,-746.239 1015.83,-730.966 1129.62,-720.923"/>
<polygon fill="#757575" stroke="#757575" points="1130.13,-724.391 1139.79,-720.028 1129.52,-717.418 1130.13,-724.391"/>
</g>
<!-- app.ts -->
<g id="node3" class="node"><title>app.ts</title>
<path fill="none" stroke="#c6c5fe" d="M48.3333,-797.005C48.3333,-797.005 7.66667,-797.005 7.66667,-797.005 3.83333,-797.005 3.55271e-015,-793.171 3.55271e-015,-789.338 3.55271e-015,-789.338 3.55271e-015,-781.671 3.55271e-015,-781.671 3.55271e-015,-777.838 3.83333,-774.005 7.66667,-774.005 7.66667,-774.005 48.3333,-774.005 48.3333,-774.005 52.1667,-774.005 56,-777.838 56,-781.671 56,-781.671 56,-789.338 56,-789.338 56,-793.171 52.1667,-797.005 48.3333,-797.005"/>
<text text-anchor="middle" x="28" y="-781.805" font-family="Arial" font-size="14.00" fill="#c6c5fe">app.ts</text>
</g>
<!-- app.ts&#45;&gt;app.service.ts -->
<g id="edge2" class="edge"><title>app.ts&#45;&gt;app.service.ts</title>
<path fill="none" stroke="#757575" d="M56.1349,-791.666C64.2825,-793.516 73.5677,-795.625 82.9712,-797.76"/>
<polygon fill="#757575" stroke="#757575" points="82.244,-801.184 92.7708,-799.985 83.7941,-794.358 82.244,-801.184"/>
</g>
<!-- di/di.executor.ts -->
<g id="node4" class="node"><title>di/di.executor.ts</title>
<path fill="none" stroke="#c6c5fe" d="M350.833,-746.005C350.833,-746.005 250.167,-746.005 250.167,-746.005 246.333,-746.005 242.5,-742.171 242.5,-738.338 242.5,-738.338 242.5,-730.671 242.5,-730.671 242.5,-726.838 246.333,-723.005 250.167,-723.005 250.167,-723.005 350.833,-723.005 350.833,-723.005 354.667,-723.005 358.5,-726.838 358.5,-730.671 358.5,-730.671 358.5,-738.338 358.5,-738.338 358.5,-742.171 354.667,-746.005 350.833,-746.005"/>
<text text-anchor="middle" x="300.5" y="-730.805" font-family="Arial" font-size="14.00" fill="#c6c5fe">di/di.executor.ts</text>
</g>
<!-- app.ts&#45;&gt;di/di.executor.ts -->
<g id="edge3" class="edge"><title>app.ts&#45;&gt;di/di.executor.ts</title>
<path fill="none" stroke="#757575" d="M56.1751,-780.381C97.0611,-772.672 175.654,-757.854 232.478,-747.141"/>
<polygon fill="#757575" stroke="#757575" points="233.286,-750.55 242.465,-745.258 231.989,-743.671 233.286,-750.55"/>
</g>
<!-- common/services/security/ecc.service.ts -->
<g id="node35" class="node"><title>common/services/security/ecc.service.ts</title>
<path fill="none" stroke="#c6c5fe" d="M1887.83,-680.005C1887.83,-680.005 1630.17,-680.005 1630.17,-680.005 1626.33,-680.005 1622.5,-676.171 1622.5,-672.338 1622.5,-672.338 1622.5,-664.671 1622.5,-664.671 1622.5,-660.838 1626.33,-657.005 1630.17,-657.005 1630.17,-657.005 1887.83,-657.005 1887.83,-657.005 1891.67,-657.005 1895.5,-660.838 1895.5,-664.671 1895.5,-664.671 1895.5,-672.338 1895.5,-672.338 1895.5,-676.171 1891.67,-680.005 1887.83,-680.005"/>
<text text-anchor="middle" x="1759" y="-664.805" font-family="Arial" font-size="14.00" fill="#c6c5fe">common/services/security/ecc.service.ts</text>
</g>
<!-- di/di.executor.ts&#45;&gt;common/services/security/ecc.service.ts -->
<g id="edge52" class="edge"><title>di/di.executor.ts&#45;&gt;common/services/security/ecc.service.ts</title>
<path fill="none" stroke="#757575" d="M308.595,-722.934C323.291,-700.051 359.437,-649.103 404,-624.505 526.786,-556.727 574.369,-578.674 714,-565.505 849.842,-552.693 884.674,-559.822 1021,-565.505 1234.44,-574.401 1309.8,-508.233 1500,-605.505 1521.89,-616.699 1514.17,-636.19 1536,-647.505 1559.31,-659.59 1585.86,-666.746 1612.29,-670.735"/>
<polygon fill="#757575" stroke="#757575" points="1612.02,-674.231 1622.41,-672.113 1612.97,-667.295 1612.02,-674.231"/>
</g>
<!-- di/arguments/argument.handler.ts -->
<g id="node36" class="node"><title>di/arguments/argument.handler.ts</title>
<path fill="none" stroke="#c6c5fe" d="M646.833,-935.005C646.833,-935.005 435.167,-935.005 435.167,-935.005 431.333,-935.005 427.5,-931.171 427.5,-927.338 427.5,-927.338 427.5,-919.671 427.5,-919.671 427.5,-915.838 431.333,-912.005 435.167,-912.005 435.167,-912.005 646.833,-912.005 646.833,-912.005 650.667,-912.005 654.5,-915.838 654.5,-919.671 654.5,-919.671 654.5,-927.338 654.5,-927.338 654.5,-931.171 650.667,-935.005 646.833,-935.005"/>
<text text-anchor="middle" x="541" y="-919.805" font-family="Arial" font-size="14.00" fill="#c6c5fe">di/arguments/argument.handler.ts</text>
</g>
<!-- di/di.executor.ts&#45;&gt;di/arguments/argument.handler.ts -->
<g id="edge53" class="edge"><title>di/di.executor.ts&#45;&gt;di/arguments/argument.handler.ts</title>
<path fill="none" stroke="#757575" d="M315.083,-746.136C329.56,-759.053 352.489,-781.058 368,-803.505 389.247,-834.253 375.917,-854.841 404,-879.505 419.463,-893.085 439.18,-902.484 458.771,-908.986"/>
<polygon fill="#757575" stroke="#757575" points="457.772,-912.34 468.36,-911.95 459.84,-905.653 457.772,-912.34"/>
</g>
<!-- di/di.interface.ts -->
<g id="node37" class="node"><title>di/di.interface.ts</title>
<path fill="none" stroke="#cfffac" d="M1328.83,-638.005C1328.83,-638.005 1228.17,-638.005 1228.17,-638.005 1224.33,-638.005 1220.5,-634.171 1220.5,-630.338 1220.5,-630.338 1220.5,-622.671 1220.5,-622.671 1220.5,-618.838 1224.33,-615.005 1228.17,-615.005 1228.17,-615.005 1328.83,-615.005 1328.83,-615.005 1332.67,-615.005 1336.5,-618.838 1336.5,-622.671 1336.5,-622.671 1336.5,-630.338 1336.5,-630.338 1336.5,-634.171 1332.67,-638.005 1328.83,-638.005"/>
<text text-anchor="middle" x="1278.5" y="-622.805" font-family="Arial" font-size="14.00" fill="#cfffac">di/di.interface.ts</text>
</g>
<!-- di/di.executor.ts&#45;&gt;di/di.interface.ts -->
<g id="edge54" class="edge"><title>di/di.executor.ts&#45;&gt;di/di.interface.ts</title>
<path fill="none" stroke="#757575" d="M313.849,-722.742C331.961,-706.322 367.551,-677.128 404,-664.505 552.529,-613.064 1032.43,-619.984 1210.33,-624.504"/>
<polygon fill="#757575" stroke="#757575" points="1210.26,-628.003 1220.35,-624.764 1210.44,-621.006 1210.26,-628.003"/>
</g>
<!-- di/di.register.ts -->
<g id="node38" class="node"><title>di/di.register.ts</title>
<path fill="none" stroke="#c6c5fe" d="M588.333,-697.005C588.333,-697.005 493.667,-697.005 493.667,-697.005 489.833,-697.005 486,-693.171 486,-689.338 486,-689.338 486,-681.671 486,-681.671 486,-677.838 489.833,-674.005 493.667,-674.005 493.667,-674.005 588.333,-674.005 588.333,-674.005 592.167,-674.005 596,-677.838 596,-681.671 596,-681.671 596,-689.338 596,-689.338 596,-693.171 592.167,-697.005 588.333,-697.005"/>
<text text-anchor="middle" x="541" y="-681.805" font-family="Arial" font-size="14.00" fill="#c6c5fe">di/di.register.ts</text>
</g>
<!-- di/di.executor.ts&#45;&gt;di/di.register.ts -->
<g id="edge55" class="edge"><title>di/di.executor.ts&#45;&gt;di/di.register.ts</title>
<path fill="none" stroke="#757575" d="M357.719,-722.954C393.092,-715.687 438.848,-706.286 475.668,-698.722"/>
<polygon fill="#757575" stroke="#757575" points="476.709,-702.081 485.8,-696.64 475.3,-695.224 476.709,-702.081"/>
</g>
<!-- server/db/vault.connection.ts -->
<g id="node39" class="node"><title>server/db/vault.connection.ts</title>
<path fill="none" stroke="#c6c5fe" d="M1369.33,-879.005C1369.33,-879.005 1187.67,-879.005 1187.67,-879.005 1183.83,-879.005 1180,-875.171 1180,-871.338 1180,-871.338 1180,-863.671 1180,-863.671 1180,-859.838 1183.83,-856.005 1187.67,-856.005 1187.67,-856.005 1369.33,-856.005 1369.33,-856.005 1373.17,-856.005 1377,-859.838 1377,-863.671 1377,-863.671 1377,-871.338 1377,-871.338 1377,-875.171 1373.17,-879.005 1369.33,-879.005"/>
<text text-anchor="middle" x="1278.5" y="-863.805" font-family="Arial" font-size="14.00" fill="#c6c5fe">server/db/vault.connection.ts</text>
</g>
<!-- di/di.executor.ts&#45;&gt;server/db/vault.connection.ts -->
<g id="edge56" class="edge"><title>di/di.executor.ts&#45;&gt;server/db/vault.connection.ts</title>
<path fill="none" stroke="#757575" d="M358.757,-745.082C438.288,-759.578 586.779,-785.931 714,-804.505 865.972,-826.691 904.318,-829.889 1057,-846.505 1093.69,-850.497 1133.86,-854.448 1169.75,-857.827"/>
<polygon fill="#757575" stroke="#757575" points="1169.47,-861.316 1179.75,-858.764 1170.12,-854.346 1169.47,-861.316"/>
</g>
<!-- common/entities/config/node&#45;database&#45;config.model.ts -->
<g id="node6" class="node"><title>common/entities/config/node&#45;database&#45;config.model.ts</title>
<path fill="none" stroke="#cfffac" d="M2381.33,-898.005C2381.33,-898.005 2031.67,-898.005 2031.67,-898.005 2027.83,-898.005 2024,-894.171 2024,-890.338 2024,-890.338 2024,-882.671 2024,-882.671 2024,-878.838 2027.83,-875.005 2031.67,-875.005 2031.67,-875.005 2381.33,-875.005 2381.33,-875.005 2385.17,-875.005 2389,-878.838 2389,-882.671 2389,-882.671 2389,-890.338 2389,-890.338 2389,-894.171 2385.17,-898.005 2381.33,-898.005"/>
<text text-anchor="middle" x="2206.5" y="-882.805" font-family="Arial" font-size="14.00" fill="#cfffac">common/entities/config/node&#45;database&#45;config.model.ts</text>
</g>
<!-- common/entities/config/node&#45;configuration.model.ts&#45;&gt;common/entities/config/node&#45;database&#45;config.model.ts -->
<g id="edge4" class="edge"><title>common/entities/config/node&#45;configuration.model.ts&#45;&gt;common/entities/config/node&#45;database&#45;config.model.ts</title>
<path fill="none" stroke="#757575" d="M1931.29,-899.43C1958.26,-898.159 1986.3,-896.837 2013.7,-895.545"/>
<polygon fill="#757575" stroke="#757575" points="2013.94,-899.038 2023.77,-895.071 2013.62,-892.046 2013.94,-899.038"/>
</g>
<!-- common/entities/config/node&#45;identity.model.ts -->
<g id="node7" class="node"><title>common/entities/config/node&#45;identity.model.ts</title>
<path fill="none" stroke="#cfffac" d="M2352.33,-939.005C2352.33,-939.005 2060.67,-939.005 2060.67,-939.005 2056.83,-939.005 2053,-935.171 2053,-931.338 2053,-931.338 2053,-923.671 2053,-923.671 2053,-919.838 2056.83,-916.005 2060.67,-916.005 2060.67,-916.005 2352.33,-916.005 2352.33,-916.005 2356.17,-916.005 2360,-919.838 2360,-923.671 2360,-923.671 2360,-931.338 2360,-931.338 2360,-935.171 2356.17,-939.005 2352.33,-939.005"/>
<text text-anchor="middle" x="2206.5" y="-923.805" font-family="Arial" font-size="14.00" fill="#cfffac">common/entities/config/node&#45;identity.model.ts</text>
</g>
<!-- common/entities/config/node&#45;configuration.model.ts&#45;&gt;common/entities/config/node&#45;identity.model.ts -->
<g id="edge5" class="edge"><title>common/entities/config/node&#45;configuration.model.ts&#45;&gt;common/entities/config/node&#45;identity.model.ts</title>
<path fill="none" stroke="#757575" d="M1931.29,-915.194C1967.83,-916.835 2006.32,-918.563 2042.54,-920.189"/>
<polygon fill="#757575" stroke="#757575" points="2042.54,-923.692 2052.69,-920.644 2042.86,-916.699 2042.54,-923.692"/>
</g>
<!-- common/entities/identity/common&#45;identity.entity.ts -->
<g id="node8" class="node"><title>common/entities/identity/common&#45;identity.entity.ts</title>
<path fill="none" stroke="#c6c5fe" d="M2363.33,-799.005C2363.33,-799.005 2049.67,-799.005 2049.67,-799.005 2045.83,-799.005 2042,-795.171 2042,-791.338 2042,-791.338 2042,-783.671 2042,-783.671 2042,-779.838 2045.83,-776.005 2049.67,-776.005 2049.67,-776.005 2363.33,-776.005 2363.33,-776.005 2367.17,-776.005 2371,-779.838 2371,-783.671 2371,-783.671 2371,-791.338 2371,-791.338 2371,-795.171 2367.17,-799.005 2363.33,-799.005"/>
<text text-anchor="middle" x="2206.5" y="-783.805" font-family="Arial" font-size="14.00" fill="#c6c5fe">common/entities/identity/common&#45;identity.entity.ts</text>
</g>
<!-- common/entities/identity/identity.model.ts -->
<g id="node9" class="node"><title>common/entities/identity/identity.model.ts</title>
<path fill="none" stroke="#cfffac" d="M2732.83,-749.005C2732.83,-749.005 2473.17,-749.005 2473.17,-749.005 2469.33,-749.005 2465.5,-745.171 2465.5,-741.338 2465.5,-741.338 2465.5,-733.671 2465.5,-733.671 2465.5,-729.838 2469.33,-726.005 2473.17,-726.005 2473.17,-726.005 2732.83,-726.005 2732.83,-726.005 2736.67,-726.005 2740.5,-729.838 2740.5,-733.671 2740.5,-733.671 2740.5,-741.338 2740.5,-741.338 2740.5,-745.171 2736.67,-749.005 2732.83,-749.005"/>
<text text-anchor="middle" x="2603" y="-733.805" font-family="Arial" font-size="14.00" fill="#cfffac">common/entities/identity/identity.model.ts</text>
</g>
<!-- common/entities/identity/common&#45;identity.entity.ts&#45;&gt;common/entities/identity/identity.model.ts -->
<g id="edge6" class="edge"><title>common/entities/identity/common&#45;identity.entity.ts&#45;&gt;common/entities/identity/identity.model.ts</title>
<path fill="none" stroke="#757575" d="M2298.5,-775.971C2358.96,-768.308 2438.41,-758.239 2500.85,-750.324"/>
<polygon fill="#757575" stroke="#757575" points="2501.63,-753.753 2511.12,-749.024 2500.75,-746.809 2501.63,-753.753"/>
</g>
<!-- common/entities/identity/personal&#45;identity.entity.ts -->
<g id="node10" class="node"><title>common/entities/identity/personal&#45;identity.entity.ts</title>
<path fill="none" stroke="#c6c5fe" d="M2362.83,-700.005C2362.83,-700.005 2050.17,-700.005 2050.17,-700.005 2046.33,-700.005 2042.5,-696.171 2042.5,-692.338 2042.5,-692.338 2042.5,-684.671 2042.5,-684.671 2042.5,-680.838 2046.33,-677.005 2050.17,-677.005 2050.17,-677.005 2362.83,-677.005 2362.83,-677.005 2366.67,-677.005 2370.5,-680.838 2370.5,-684.671 2370.5,-684.671 2370.5,-692.338 2370.5,-692.338 2370.5,-696.171 2366.67,-700.005 2362.83,-700.005"/>
<text text-anchor="middle" x="2206.5" y="-684.805" font-family="Arial" font-size="14.00" fill="#c6c5fe">common/entities/identity/personal&#45;identity.entity.ts</text>
</g>
<!-- common/entities/identity/personal&#45;identity.entity.ts&#45;&gt;common/entities/identity/identity.model.ts -->
<g id="edge7" class="edge"><title>common/entities/identity/personal&#45;identity.entity.ts&#45;&gt;common/entities/identity/identity.model.ts</title>
<path fill="none" stroke="#757575" d="M2300.49,-700.055C2360.16,-707.466 2437.68,-717.095 2499.18,-724.733"/>
<polygon fill="#757575" stroke="#757575" points="2498.94,-728.23 2509.29,-725.989 2499.8,-721.283 2498.94,-728.23"/>
</g>
<!-- common/logger/server&#45;logger.config.ts -->
<g id="node11" class="node"><title>common/logger/server&#45;logger.config.ts</title>
<path fill="none" stroke="#cfffac" d="M1882.83,-837.005C1882.83,-837.005 1635.17,-837.005 1635.17,-837.005 1631.33,-837.005 1627.5,-833.171 1627.5,-829.338 1627.5,-829.338 1627.5,-821.671 1627.5,-821.671 1627.5,-817.838 1631.33,-814.005 1635.17,-814.005 1635.17,-814.005 1882.83,-814.005 1882.83,-814.005 1886.67,-814.005 1890.5,-817.838 1890.5,-821.671 1890.5,-821.671 1890.5,-829.338 1890.5,-829.338 1890.5,-833.171 1886.67,-837.005 1882.83,-837.005"/>
<text text-anchor="middle" x="1759" y="-821.805" font-family="Arial" font-size="14.00" fill="#cfffac">common/logger/server&#45;logger.config.ts</text>
</g>
<!-- common/logger/server&#45;logger.service.ts -->
<g id="node13" class="node"><title>common/logger/server&#45;logger.service.ts</title>
<path fill="none" stroke="#c6c5fe" d="M1405.33,-838.005C1405.33,-838.005 1151.67,-838.005 1151.67,-838.005 1147.83,-838.005 1144,-834.171 1144,-830.338 1144,-830.338 1144,-822.671 1144,-822.671 1144,-818.838 1147.83,-815.005 1151.67,-815.005 1151.67,-815.005 1405.33,-815.005 1405.33,-815.005 1409.17,-815.005 1413,-818.838 1413,-822.671 1413,-822.671 1413,-830.338 1413,-830.338 1413,-834.171 1409.17,-838.005 1405.33,-838.005"/>
<text text-anchor="middle" x="1278.5" y="-822.805" font-family="Arial" font-size="14.00" fill="#c6c5fe">common/logger/server&#45;logger.service.ts</text>
</g>
<!-- common/logger/server&#45;logger.service.ts&#45;&gt;common/entities/config/node&#45;configuration.model.ts -->
<g id="edge8" class="edge"><title>common/logger/server&#45;logger.service.ts&#45;&gt;common/entities/config/node&#45;configuration.model.ts</title>
<path fill="none" stroke="#757575" d="M1413.05,-822.695C1442.84,-826.118 1473.45,-833.21 1500,-846.505 1521.39,-857.213 1514.63,-875.755 1536,-886.505 1548.86,-892.972 1562.66,-898.005 1576.86,-901.882"/>
<polygon fill="#757575" stroke="#757575" points="1576.2,-905.325 1586.75,-904.385 1577.92,-898.539 1576.2,-905.325"/>
</g>
<!-- common/logger/server&#45;logger.service.ts&#45;&gt;common/logger/server&#45;logger.config.ts -->
<g id="edge9" class="edge"><title>common/logger/server&#45;logger.service.ts&#45;&gt;common/logger/server&#45;logger.config.ts</title>
<path fill="none" stroke="#757575" d="M1413.11,-826.225C1476.62,-826.093 1552.57,-825.934 1617.01,-825.799"/>
<polygon fill="#757575" stroke="#757575" points="1617.25,-829.299 1627.25,-825.778 1617.24,-822.299 1617.25,-829.299"/>
</g>
<!-- common/logger/server&#45;logger.service.ts&#45;&gt;common/logger/server&#45;logger.interface.ts -->
<g id="edge10" class="edge"><title>common/logger/server&#45;logger.service.ts&#45;&gt;common/logger/server&#45;logger.interface.ts</title>
<path fill="none" stroke="#757575" d="M1410.57,-815C1474.39,-809.398 1551.22,-802.654 1616.39,-796.935"/>
<polygon fill="#757575" stroke="#757575" points="1617.09,-800.387 1626.74,-796.026 1616.47,-793.414 1617.09,-800.387"/>
</g>
<!-- common/network/api/controllers/network.api.ts -->
<g id="node15" class="node"><title>common/network/api/controllers/network.api.ts</title>
<path fill="none" stroke="#c6c5fe" d="M1013.33,-997.005C1013.33,-997.005 721.667,-997.005 721.667,-997.005 717.833,-997.005 714,-993.171 714,-989.338 714,-989.338 714,-981.671 714,-981.671 714,-977.838 717.833,-974.005 721.667,-974.005 721.667,-974.005 1013.33,-974.005 1013.33,-974.005 1017.17,-974.005 1021,-977.838 1021,-981.671 1021,-981.671 1021,-989.338 1021,-989.338 1021,-993.171 1017.17,-997.005 1013.33,-997.005"/>
<text text-anchor="middle" x="867.5" y="-981.805" font-family="Arial" font-size="14.00" fill="#c6c5fe">common/network/api/controllers/network.api.ts</text>
</g>
<!-- common/network/api/basic.api.register.ts&#45;&gt;common/network/api/controllers/network.api.ts -->
<g id="edge11" class="edge"><title>common/network/api/basic.api.register.ts&#45;&gt;common/network/api/controllers/network.api.ts</title>
<path fill="none" stroke="#757575" d="M678.207,-980.282C686.684,-980.517 695.258,-980.755 703.834,-980.993"/>
<polygon fill="#757575" stroke="#757575" points="703.803,-984.493 713.897,-981.272 703.998,-977.496 703.803,-984.493"/>
</g>
<!-- common/network/api/basic.api.ts -->
<g id="node16" class="node"><title>common/network/api/basic.api.ts</title>
<path fill="none" stroke="#cfffac" d="M1381.83,-997.005C1381.83,-997.005 1175.17,-997.005 1175.17,-997.005 1171.33,-997.005 1167.5,-993.171 1167.5,-989.338 1167.5,-989.338 1167.5,-981.671 1167.5,-981.671 1167.5,-977.838 1171.33,-974.005 1175.17,-974.005 1175.17,-974.005 1381.83,-974.005 1381.83,-974.005 1385.67,-974.005 1389.5,-977.838 1389.5,-981.671 1389.5,-981.671 1389.5,-989.338 1389.5,-989.338 1389.5,-993.171 1385.67,-997.005 1381.83,-997.005"/>
<text text-anchor="middle" x="1278.5" y="-981.805" font-family="Arial" font-size="14.00" fill="#cfffac">common/network/api/basic.api.ts</text>
</g>
<!-- common/network/api/controllers/network.api.ts&#45;&gt;common/network/api/basic.api.ts -->
<g id="edge12" class="edge"><title>common/network/api/controllers/network.api.ts&#45;&gt;common/network/api/basic.api.ts</title>
<path fill="none" stroke="#757575" d="M1021.09,-985.505C1066.06,-985.505 1114.62,-985.505 1157.26,-985.505"/>
<polygon fill="#757575" stroke="#757575" points="1157.4,-989.005 1167.4,-985.505 1157.4,-982.005 1157.4,-989.005"/>
</g>
<!-- common/network/api/controllers/network.api.ts&#45;&gt;common/services/common/identity.service.ts -->
<g id="edge13" class="edge"><title>common/network/api/controllers/network.api.ts&#45;&gt;common/services/common/identity.service.ts</title>
<path fill="none" stroke="#757575" d="M878.011,-973.959C903.927,-943.094 979.084,-857.491 1057,-805.505 1112.86,-768.232 1185.4,-739.553 1231.72,-723.353"/>
<polygon fill="#757575" stroke="#757575" points="1232.87,-726.656 1241.19,-720.086 1230.59,-720.038 1232.87,-726.656"/>
</g>
<!-- common/services/common/network&#45;members.service.ts -->
<g id="node18" class="node"><title>common/services/common/network&#45;members.service.ts</title>
<path fill="none" stroke="#cfffac" d="M1456.33,-1038C1456.33,-1038 1100.67,-1038 1100.67,-1038 1096.83,-1038 1093,-1034.17 1093,-1030.34 1093,-1030.34 1093,-1022.67 1093,-1022.67 1093,-1018.84 1096.83,-1015 1100.67,-1015 1100.67,-1015 1456.33,-1015 1456.33,-1015 1460.17,-1015 1464,-1018.84 1464,-1022.67 1464,-1022.67 1464,-1030.34 1464,-1030.34 1464,-1034.17 1460.17,-1038 1456.33,-1038"/>
<text text-anchor="middle" x="1278.5" y="-1022.8" font-family="Arial" font-size="14.00" fill="#cfffac">common/services/common/network&#45;members.service.ts</text>
</g>
<!-- common/network/api/controllers/network.api.ts&#45;&gt;common/services/common/network&#45;members.service.ts -->
<g id="edge14" class="edge"><title>common/network/api/controllers/network.api.ts&#45;&gt;common/services/common/network&#45;members.service.ts</title>
<path fill="none" stroke="#757575" d="M975.146,-997.022C1001.87,-999.852 1030.48,-1002.83 1057,-1005.5 1085.15,-1008.34 1115.33,-1011.28 1144.06,-1014.03"/>
<polygon fill="#757575" stroke="#757575" points="1143.86,-1017.53 1154.15,-1014.99 1144.53,-1010.56 1143.86,-1017.53"/>
</g>
<!-- common/services/common/identity.service.ts&#45;&gt;common/entities/config/node&#45;configuration.model.ts -->
<g id="edge45" class="edge"><title>common/services/common/identity.service.ts&#45;&gt;common/entities/config/node&#45;configuration.model.ts</title>
<path fill="none" stroke="#757575" d="M1332.05,-720.013C1381.09,-733.18 1453.48,-759.164 1500,-805.505 1527.91,-833.308 1504.02,-863.504 1536,-886.505 1548.5,-895.497 1562.48,-902.201 1577.18,-907.112"/>
<polygon fill="#757575" stroke="#757575" points="1576.34,-910.517 1586.93,-910.086 1578.39,-903.821 1576.34,-910.517"/>
</g>
<!-- common/services/common/identity.service.ts&#45;&gt;common/entities/identity/personal&#45;identity.entity.ts -->
<g id="edge46" class="edge"><title>common/services/common/identity.service.ts&#45;&gt;common/entities/identity/personal&#45;identity.entity.ts</title>
<path fill="none" stroke="#757575" d="M1429.05,-705.275C1593.82,-701.716 1858.44,-696 2032.15,-692.248"/>
<polygon fill="#757575" stroke="#757575" points="2032.24,-695.747 2042.17,-692.032 2032.09,-688.749 2032.24,-695.747"/>
</g>
<!-- common/services/common/identity.service.ts&#45;&gt;common/logger/server&#45;logger.interface.ts -->
<g id="edge47" class="edge"><title>common/services/common/identity.service.ts&#45;&gt;common/logger/server&#45;logger.interface.ts</title>
<path fill="none" stroke="#757575" d="M1391.04,-720.031C1426,-724.079 1464.67,-729.006 1500,-734.505 1566.57,-744.865 1642.18,-759.908 1694.25,-770.785"/>
<polygon fill="#757575" stroke="#757575" points="1693.84,-774.274 1704.34,-772.902 1695.27,-767.423 1693.84,-774.274"/>
</g>
<!-- common/repositories/identity/personal&#45;identity.interface.repository.ts -->
<g id="node20" class="node"><title>common/repositories/identity/personal&#45;identity.interface.repository.ts</title>
<path fill="none" stroke="#c6c5fe" d="M1974.33,-639.005C1974.33,-639.005 1543.67,-639.005 1543.67,-639.005 1539.83,-639.005 1536,-635.171 1536,-631.338 1536,-631.338 1536,-623.671 1536,-623.671 1536,-619.838 1539.83,-616.005 1543.67,-616.005 1543.67,-616.005 1974.33,-616.005 1974.33,-616.005 1978.17,-616.005 1982,-619.838 1982,-623.671 1982,-623.671 1982,-631.338 1982,-631.338 1982,-635.171 1978.17,-639.005 1974.33,-639.005"/>
<text text-anchor="middle" x="1759" y="-623.805" font-family="Arial" font-size="14.00" fill="#c6c5fe">common/repositories/identity/personal&#45;identity.interface.repository.ts</text>
</g>
<!-- common/services/common/identity.service.ts&#45;&gt;common/repositories/identity/personal&#45;identity.interface.repository.ts -->
<g id="edge48" class="edge"><title>common/services/common/identity.service.ts&#45;&gt;common/repositories/identity/personal&#45;identity.interface.repository.ts</title>
<path fill="none" stroke="#757575" d="M1429.03,-709.368C1453.63,-705.312 1478.19,-698.486 1500,-687.505 1521.36,-676.748 1514.61,-658.206 1536,-647.505 1539.36,-645.826 1542.77,-644.245 1546.25,-642.759"/>
<polygon fill="#757575" stroke="#757575" points="1547.58,-645.997 1555.57,-639.037 1544.98,-639.496 1547.58,-645.997"/>
</g>
<!-- common/services/common/identity.service.ts&#45;&gt;common/services/security/ecc.service.ts -->
<g id="edge49" class="edge"><title>common/services/common/identity.service.ts&#45;&gt;common/services/security/ecc.service.ts</title>
<path fill="none" stroke="#757575" d="M1417.26,-696.989C1478.33,-691.884 1550.22,-685.873 1612.2,-680.693"/>
<polygon fill="#757575" stroke="#757575" points="1612.78,-684.157 1622.45,-679.836 1612.19,-677.181 1612.78,-684.157"/>
</g>
<!-- common/network/rabbitmq/rabbit&#45;mq.config.ts -->
<g id="node19" class="node"><title>common/network/rabbitmq/rabbit&#45;mq.config.ts</title>
<path fill="none" stroke="#cfffac" d="M1423.33,-679.005C1423.33,-679.005 1133.67,-679.005 1133.67,-679.005 1129.83,-679.005 1126,-675.171 1126,-671.338 1126,-671.338 1126,-663.671 1126,-663.671 1126,-659.838 1129.83,-656.005 1133.67,-656.005 1133.67,-656.005 1423.33,-656.005 1423.33,-656.005 1427.17,-656.005 1431,-659.838 1431,-663.671 1431,-663.671 1431,-671.338 1431,-671.338 1431,-675.171 1427.17,-679.005 1423.33,-679.005"/>
<text text-anchor="middle" x="1278.5" y="-663.805" font-family="Arial" font-size="14.00" fill="#cfffac">common/network/rabbitmq/rabbit&#45;mq.config.ts</text>
</g>
<!-- common/repositories/identity/personal&#45;identity.interface.repository.ts&#45;&gt;common/entities/identity/personal&#45;identity.entity.ts -->
<g id="edge15" class="edge"><title>common/repositories/identity/personal&#45;identity.interface.repository.ts&#45;&gt;common/entities/identity/personal&#45;identity.entity.ts</title>
<path fill="none" stroke="#757575" d="M1908.88,-639.023C1933.36,-641.46 1958.42,-644.286 1982,-647.505 2035.78,-654.844 2096.32,-666.138 2140.81,-675.016"/>
<polygon fill="#757575" stroke="#757575" points="2140.12,-678.448 2150.62,-676.986 2141.5,-671.585 2140.12,-678.448"/>
</g>
<!-- common/repositories/identity/personal&#45;identity.repository.ts -->
<g id="node21" class="node"><title>common/repositories/identity/personal&#45;identity.repository.ts</title>
<path fill="none" stroke="#c6c5fe" d="M1464.83,-520.005C1464.83,-520.005 1092.17,-520.005 1092.17,-520.005 1088.33,-520.005 1084.5,-516.171 1084.5,-512.338 1084.5,-512.338 1084.5,-504.671 1084.5,-504.671 1084.5,-500.838 1088.33,-497.005 1092.17,-497.005 1092.17,-497.005 1464.83,-497.005 1464.83,-497.005 1468.67,-497.005 1472.5,-500.838 1472.5,-504.671 1472.5,-504.671 1472.5,-512.338 1472.5,-512.338 1472.5,-516.171 1468.67,-520.005 1464.83,-520.005"/>
<text text-anchor="middle" x="1278.5" y="-504.805" font-family="Arial" font-size="14.00" fill="#c6c5fe">common/repositories/identity/personal&#45;identity.repository.ts</text>
</g>
<!-- common/repositories/identity/personal&#45;identity.repository.ts&#45;&gt;common/entities/identity/personal&#45;identity.entity.ts -->
<g id="edge16" class="edge"><title>common/repositories/identity/personal&#45;identity.repository.ts&#45;&gt;common/entities/identity/personal&#45;identity.entity.ts</title>
<path fill="none" stroke="#757575" d="M1457.41,-520.059C1472.12,-523.831 1486.5,-528.571 1500,-534.505 1519.33,-543.001 1516.56,-557.257 1536,-565.505 1719.24,-643.258 1787.81,-562.742 1982,-606.505 2051.35,-622.133 2128.4,-653.774 2171.5,-672.858"/>
<polygon fill="#757575" stroke="#757575" points="2170.12,-676.075 2180.67,-676.96 2172.97,-669.684 2170.12,-676.075"/>
</g>
<!-- common/repositories/identity/personal&#45;identity.repository.ts&#45;&gt;common/repositories/identity/personal&#45;identity.interface.repository.ts -->
<g id="edge17" class="edge"><title>common/repositories/identity/personal&#45;identity.repository.ts&#45;&gt;common/repositories/identity/personal&#45;identity.interface.repository.ts</title>
<path fill="none" stroke="#757575" d="M1472.73,-519.82C1482.29,-523.878 1491.46,-528.73 1500,-534.505 1527.68,-553.217 1508.35,-581.742 1536,-600.505 1542.18,-604.701 1548.69,-608.42 1555.44,-611.708"/>
<polygon fill="#757575" stroke="#757575" points="1554.24,-615.003 1564.79,-615.929 1557.12,-608.624 1554.24,-615.003"/>
</g>
<!-- common/services/blockchain/blockchain.config.ts -->
<g id="node22" class="node"><title>common/services/blockchain/blockchain.config.ts</title>
<path fill="none" stroke="#cfffac" d="M1915.33,-242.005C1915.33,-242.005 1602.67,-242.005 1602.67,-242.005 1598.83,-242.005 1595,-238.171 1595,-234.338 1595,-234.338 1595,-226.671 1595,-226.671 1595,-222.838 1598.83,-219.005 1602.67,-219.005 1602.67,-219.005 1915.33,-219.005 1915.33,-219.005 1919.17,-219.005 1923,-222.838 1923,-226.671 1923,-226.671 1923,-234.338 1923,-234.338 1923,-238.171 1919.17,-242.005 1915.33,-242.005"/>
<text text-anchor="middle" x="1759" y="-226.805" font-family="Arial" font-size="14.00" fill="#cfffac">common/services/blockchain/blockchain.config.ts</text>
</g>
<!-- common/services/blockchain/blockchain.service.interface.ts -->
<g id="node23" class="node"><title>common/services/blockchain/blockchain.service.interface.ts</title>
<path fill="none" stroke="#c6c5fe" d="M1947.83,-439.005C1947.83,-439.005 1570.17,-439.005 1570.17,-439.005 1566.33,-439.005 1562.5,-435.171 1562.5,-431.338 1562.5,-431.338 1562.5,-423.671 1562.5,-423.671 1562.5,-419.838 1566.33,-416.005 1570.17,-416.005 1570.17,-416.005 1947.83,-416.005 1947.83,-416.005 1951.67,-416.005 1955.5,-419.838 1955.5,-423.671 1955.5,-423.671 1955.5,-431.338 1955.5,-431.338 1955.5,-435.171 1951.67,-439.005 1947.83,-439.005"/>
<text text-anchor="middle" x="1759" y="-423.805" font-family="Arial" font-size="14.00" fill="#c6c5fe">common/services/blockchain/blockchain.service.interface.ts</text>
</g>
<!-- common/services/blockchain/entities/block.model.ts -->
<g id="node24" class="node"><title>common/services/blockchain/entities/block.model.ts</title>
<path fill="none" stroke="#c6c5fe" d="M2767.33,-361.005C2767.33,-361.005 2438.67,-361.005 2438.67,-361.005 2434.83,-361.005 2431,-357.171 2431,-353.338 2431,-353.338 2431,-345.671 2431,-345.671 2431,-341.838 2434.83,-338.005 2438.67,-338.005 2438.67,-338.005 2767.33,-338.005 2767.33,-338.005 2771.17,-338.005 2775,-341.838 2775,-345.671 2775,-345.671 2775,-353.338 2775,-353.338 2775,-357.171 2771.17,-361.005 2767.33,-361.005"/>
<text text-anchor="middle" x="2603" y="-345.805" font-family="Arial" font-size="14.00" fill="#c6c5fe">common/services/blockchain/entities/block.model.ts</text>
</g>
<!-- common/services/blockchain/blockchain.service.interface.ts&#45;&gt;common/services/blockchain/entities/block.model.ts -->
<g id="edge18" class="edge"><title>common/services/blockchain/blockchain.service.interface.ts&#45;&gt;common/services/blockchain/entities/block.model.ts</title>
<path fill="none" stroke="#757575" d="M1884.24,-415.995C2040.13,-401.555 2306.46,-376.883 2467.16,-361.995"/>
<polygon fill="#757575" stroke="#757575" points="2467.96,-365.437 2477.59,-361.029 2467.31,-358.467 2467.96,-365.437"/>
</g>
<!-- common/services/blockchain/entities/blockchain.model.ts -->
<g id="node25" class="node"><title>common/services/blockchain/entities/blockchain.model.ts</title>
<path fill="none" stroke="#c6c5fe" d="M2387.33,-553.005C2387.33,-553.005 2025.67,-553.005 2025.67,-553.005 2021.83,-553.005 2018,-549.171 2018,-545.338 2018,-545.338 2018,-537.671 2018,-537.671 2018,-533.838 2021.83,-530.005 2025.67,-530.005 2025.67,-530.005 2387.33,-530.005 2387.33,-530.005 2391.17,-530.005 2395,-533.838 2395,-537.671 2395,-537.671 2395,-545.338 2395,-545.338 2395,-549.171 2391.17,-553.005 2387.33,-553.005"/>
<text text-anchor="middle" x="2206.5" y="-537.805" font-family="Arial" font-size="14.00" fill="#c6c5fe">common/services/blockchain/entities/blockchain.model.ts</text>
</g>
<!-- common/services/blockchain/blockchain.service.interface.ts&#45;&gt;common/services/blockchain/entities/blockchain.model.ts -->
<g id="edge19" class="edge"><title>common/services/blockchain/blockchain.service.interface.ts&#45;&gt;common/services/blockchain/entities/blockchain.model.ts</title>
<path fill="none" stroke="#757575" d="M1954.35,-439.013C1964.03,-443.022 1973.32,-447.81 1982,-453.505 2008.64,-470.984 1991.55,-497.743 2018,-515.505 2023.77,-519.381 2029.88,-522.795 2036.21,-525.795"/>
<polygon fill="#757575" stroke="#757575" points="2035.08,-529.121 2045.65,-529.901 2037.87,-522.702 2035.08,-529.121"/>
</g>
<!-- common/services/blockchain/entities/proof.model.ts -->
<g id="node26" class="node"><title>common/services/blockchain/entities/proof.model.ts</title>
<path fill="none" stroke="#cfffac" d="M3164.83,-321.005C3164.83,-321.005 2836.17,-321.005 2836.17,-321.005 2832.33,-321.005 2828.5,-317.171 2828.5,-313.338 2828.5,-313.338 2828.5,-305.671 2828.5,-305.671 2828.5,-301.838 2832.33,-298.005 2836.17,-298.005 2836.17,-298.005 3164.83,-298.005 3164.83,-298.005 3168.67,-298.005 3172.5,-301.838 3172.5,-305.671 3172.5,-305.671 3172.5,-313.338 3172.5,-313.338 3172.5,-317.171 3168.67,-321.005 3164.83,-321.005"/>
<text text-anchor="middle" x="3000.5" y="-305.805" font-family="Arial" font-size="14.00" fill="#cfffac">common/services/blockchain/entities/proof.model.ts</text>
</g>
<!-- common/services/blockchain/blockchain.service.interface.ts&#45;&gt;common/services/blockchain/entities/proof.model.ts -->
<g id="edge20" class="edge"><title>common/services/blockchain/blockchain.service.interface.ts&#45;&gt;common/services/blockchain/entities/proof.model.ts</title>
<path fill="none" stroke="#757575" d="M1955.61,-429.502C2161.12,-428.536 2493.03,-418.277 2775,-369.505 2838.2,-358.573 2909.48,-338.08 2954.44,-324.116"/>
<polygon fill="#757575" stroke="#757575" points="2955.67,-327.397 2964.17,-321.067 2953.58,-320.717 2955.67,-327.397"/>
</g>
<!-- common/services/blockchain/entities/transaction.model.ts -->
<g id="node27" class="node"><title>common/services/blockchain/entities/transaction.model.ts</title>
<path fill="none" stroke="#cfffac" d="M3182.33,-457.005C3182.33,-457.005 2818.67,-457.005 2818.67,-457.005 2814.83,-457.005 2811,-453.171 2811,-449.338 2811,-449.338 2811,-441.671 2811,-441.671 2811,-437.838 2814.83,-434.005 2818.67,-434.005 2818.67,-434.005 3182.33,-434.005 3182.33,-434.005 3186.17,-434.005 3190,-437.838 3190,-441.671 3190,-441.671 3190,-449.338 3190,-449.338 3190,-453.171 3186.17,-457.005 3182.33,-457.005"/>
<text text-anchor="middle" x="3000.5" y="-441.805" font-family="Arial" font-size="14.00" fill="#cfffac">common/services/blockchain/entities/transaction.model.ts</text>
</g>
<!-- common/services/blockchain/blockchain.service.interface.ts&#45;&gt;common/services/blockchain/entities/transaction.model.ts -->
<g id="edge21" class="edge"><title>common/services/blockchain/blockchain.service.interface.ts&#45;&gt;common/services/blockchain/entities/transaction.model.ts</title>
<path fill="none" stroke="#757575" d="M1955.6,-433.909C1964.66,-436.596 1973.51,-439.771 1982,-443.505 2002.15,-452.366 1997.55,-469.374 2018,-477.505 2174.32,-539.654 2607.2,-489.403 2775,-477.505 2825.64,-473.913 2882.23,-465.82 2925.92,-458.672"/>
<polygon fill="#757575" stroke="#757575" points="2926.6,-462.108 2935.89,-457.022 2925.45,-455.203 2926.6,-462.108"/>
</g>
<!-- common/services/blockchain/entities/block.model.ts&#45;&gt;common/services/blockchain/entities/proof.model.ts -->
<g id="edge37" class="edge"><title>common/services/blockchain/entities/block.model.ts&#45;&gt;common/services/blockchain/entities/proof.model.ts</title>
<path fill="none" stroke="#757575" d="M2717.86,-337.989C2767.28,-332.99 2825.28,-327.124 2875.76,-322.019"/>
<polygon fill="#757575" stroke="#757575" points="2876.16,-325.497 2885.75,-321.008 2875.45,-318.533 2876.16,-325.497"/>
</g>
<!-- common/services/blockchain/entities/block.model.ts&#45;&gt;common/services/blockchain/entities/transaction.model.ts -->
<g id="edge38" class="edge"><title>common/services/blockchain/entities/block.model.ts&#45;&gt;common/services/blockchain/entities/transaction.model.ts</title>
<path fill="none" stroke="#757575" d="M2697.23,-361.066C2722.6,-364.922 2749.98,-369.737 2775,-375.505 2840.09,-390.511 2913.69,-414.931 2958.33,-430.601"/>
<polygon fill="#757575" stroke="#757575" points="2957.35,-433.966 2967.94,-433.998 2959.68,-427.366 2957.35,-433.966"/>
</g>
<!-- common/services/blockchain/entities/blockchain.model.ts&#45;&gt;common/services/blockchain/entities/block.model.ts -->
<g id="edge39" class="edge"><title>common/services/blockchain/entities/blockchain.model.ts&#45;&gt;common/services/blockchain/entities/block.model.ts</title>
<path fill="none" stroke="#757575" d="M2231.29,-529.926C2298.7,-497.116 2491.15,-403.454 2568.86,-365.635"/>
<polygon fill="#757575" stroke="#757575" points="2570.72,-368.621 2578.18,-361.098 2567.66,-362.327 2570.72,-368.621"/>
</g>
<!-- common/services/blockchain/entities/blockchain.model.ts&#45;&gt;common/services/blockchain/entities/transaction.model.ts -->
<g id="edge40" class="edge"><title>common/services/blockchain/entities/blockchain.model.ts&#45;&gt;common/services/blockchain/entities/transaction.model.ts</title>
<path fill="none" stroke="#757575" d="M2395.08,-544.924C2506.29,-543.975 2649.57,-537.554 2775,-515.505 2842.1,-503.708 2917.12,-477.546 2961.22,-460.76"/>
<polygon fill="#757575" stroke="#757575" points="2962.6,-463.979 2970.67,-457.122 2960.08,-457.445 2962.6,-463.979"/>
</g>
<!-- common/services/blockchain/blockchain.service.ts -->
<g id="node28" class="node"><title>common/services/blockchain/blockchain.service.ts</title>
<path fill="none" stroke="#c6c5fe" d="M1438.33,-360.005C1438.33,-360.005 1118.67,-360.005 1118.67,-360.005 1114.83,-360.005 1111,-356.171 1111,-352.338 1111,-352.338 1111,-344.671 1111,-344.671 1111,-340.838 1114.83,-337.005 1118.67,-337.005 1118.67,-337.005 1438.33,-337.005 1438.33,-337.005 1442.17,-337.005 1446,-340.838 1446,-344.671 1446,-344.671 1446,-352.338 1446,-352.338 1446,-356.171 1442.17,-360.005 1438.33,-360.005"/>
<text text-anchor="middle" x="1278.5" y="-344.805" font-family="Arial" font-size="14.00" fill="#c6c5fe">common/services/blockchain/blockchain.service.ts</text>
</g>
<!-- common/services/blockchain/blockchain.service.ts&#45;&gt;common/services/blockchain/blockchain.config.ts -->
<g id="edge22" class="edge"><title>common/services/blockchain/blockchain.service.ts&#45;&gt;common/services/blockchain/blockchain.config.ts</title>
<path fill="none" stroke="#757575" d="M1344.2,-336.916C1389.78,-326.937 1451.14,-309.753 1500,-282.505 1518.7,-272.078 1516.35,-259.003 1536,-250.505 1551.44,-243.826 1568.04,-238.84 1584.95,-235.162"/>
<polygon fill="#757575" stroke="#757575" points="1585.83,-238.555 1594.94,-233.145 1584.45,-231.693 1585.83,-238.555"/>
</g>
<!-- common/services/blockchain/blockchain.service.ts&#45;&gt;common/services/blockchain/blockchain.service.interface.ts -->
<g id="edge23" class="edge"><title>common/services/blockchain/blockchain.service.ts&#45;&gt;common/services/blockchain/blockchain.service.interface.ts</title>
<path fill="none" stroke="#757575" d="M1446.21,-358.622C1464.72,-362.535 1483,-367.706 1500,-374.505 1518.57,-381.931 1517.43,-394.085 1536,-401.505 1547.99,-406.294 1560.61,-410.277 1573.5,-413.584"/>
<polygon fill="#757575" stroke="#757575" points="1572.86,-417.029 1583.4,-415.982 1574.51,-410.226 1572.86,-417.029"/>
</g>
<!-- common/services/blockchain/blockchain.service.ts&#45;&gt;common/services/blockchain/entities/block.model.ts -->
<g id="edge26" class="edge"><title>common/services/blockchain/blockchain.service.ts&#45;&gt;common/services/blockchain/entities/block.model.ts</title>
<path fill="none" stroke="#757575" d="M1446.33,-348.631C1695.58,-348.819 2163.37,-349.173 2420.76,-349.367"/>
<polygon fill="#757575" stroke="#757575" points="2420.96,-352.868 2430.97,-349.375 2420.97,-345.868 2420.96,-352.868"/>
</g>
<!-- common/services/blockchain/blockchain.service.ts&#45;&gt;common/services/blockchain/entities/blockchain.model.ts -->
<g id="edge27" class="edge"><title>common/services/blockchain/blockchain.service.ts&#45;&gt;common/services/blockchain/entities/blockchain.model.ts</title>
<path fill="none" stroke="#757575" d="M1367.35,-360.05C1409.74,-368.508 1459.96,-382.971 1500,-407.505 1520.39,-420 1514.54,-436.95 1536,-447.505 1714.39,-535.231 1800.19,-401.086 1982,-481.505 2002.13,-490.407 1998.16,-505.985 2018,-515.505 2027.43,-520.029 2037.41,-523.83 2047.67,-527.018"/>
<polygon fill="#757575" stroke="#757575" points="2046.99,-530.467 2057.57,-529.89 2048.94,-523.744 2046.99,-530.467"/>
</g>
<!-- common/services/blockchain/blockchain.service.ts&#45;&gt;common/services/blockchain/entities/proof.model.ts -->
<g id="edge28" class="edge"><title>common/services/blockchain/blockchain.service.ts&#45;&gt;common/services/blockchain/entities/proof.model.ts</title>
<path fill="none" stroke="#757575" d="M1446.38,-344.721C1770.45,-337.372 2482.52,-321.227 2817.95,-313.621"/>
<polygon fill="#757575" stroke="#757575" points="2818.33,-317.113 2828.25,-313.388 2818.17,-310.115 2818.33,-317.113"/>
</g>
<!-- common/services/blockchain/blockchain.service.ts&#45;&gt;common/services/blockchain/entities/transaction.model.ts -->
<g id="edge29" class="edge"><title>common/services/blockchain/blockchain.service.ts&#45;&gt;common/services/blockchain/entities/transaction.model.ts</title>
<path fill="none" stroke="#757575" d="M1446.1,-358.307C1476.03,-360.051 1506.94,-361.841 1536,-363.505 1988.2,-389.395 2519.05,-418.922 2800.59,-434.514"/>
<polygon fill="#757575" stroke="#757575" points="2800.74,-438.027 2810.92,-435.086 2801.12,-431.038 2800.74,-438.027"/>
</g>
<!-- common/services/blockchain/consensus/consensus.ts -->
<g id="node29" class="node"><title>common/services/blockchain/consensus/consensus.ts</title>
<path fill="none" stroke="#c6c5fe" d="M1931.33,-121.005C1931.33,-121.005 1586.67,-121.005 1586.67,-121.005 1582.83,-121.005 1579,-117.171 1579,-113.338 1579,-113.338 1579,-105.671 1579,-105.671 1579,-101.838 1582.83,-98.0045 1586.67,-98.0045 1586.67,-98.0045 1931.33,-98.0045 1931.33,-98.0045 1935.17,-98.0045 1939,-101.838 1939,-105.671 1939,-105.671 1939,-113.338 1939,-113.338 1939,-117.171 1935.17,-121.005 1931.33,-121.005"/>
<text text-anchor="middle" x="1759" y="-105.805" font-family="Arial" font-size="14.00" fill="#c6c5fe">common/services/blockchain/consensus/consensus.ts</text>
</g>
<!-- common/services/blockchain/blockchain.service.ts&#45;&gt;common/services/blockchain/consensus/consensus.ts -->
<g id="edge24" class="edge"><title>common/services/blockchain/blockchain.service.ts&#45;&gt;common/services/blockchain/consensus/consensus.ts</title>
<path fill="none" stroke="#757575" d="M1295.45,-336.818C1347.35,-298.868 1509.55,-180.82 1536,-168.505 1581.78,-147.184 1636.59,-132.52 1680.3,-123.143"/>
<polygon fill="#757575" stroke="#757575" points="1681.23,-126.524 1690.3,-121.048 1679.79,-119.673 1681.23,-126.524"/>
</g>
<!-- common/services/blockchain/crypto/crypto.util.ts -->
<g id="node30" class="node"><title>common/services/blockchain/crypto/crypto.util.ts</title>
<path fill="none" stroke="#cfffac" d="M1911.83,-283.005C1911.83,-283.005 1606.17,-283.005 1606.17,-283.005 1602.33,-283.005 1598.5,-279.171 1598.5,-275.338 1598.5,-275.338 1598.5,-267.671 1598.5,-267.671 1598.5,-263.838 1602.33,-260.005 1606.17,-260.005 1606.17,-260.005 1911.83,-260.005 1911.83,-260.005 1915.67,-260.005 1919.5,-263.838 1919.5,-267.671 1919.5,-267.671 1919.5,-275.338 1919.5,-275.338 1919.5,-279.171 1915.67,-283.005 1911.83,-283.005"/>
<text text-anchor="middle" x="1759" y="-267.805" font-family="Arial" font-size="14.00" fill="#cfffac">common/services/blockchain/crypto/crypto.util.ts</text>
</g>
<!-- common/services/blockchain/blockchain.service.ts&#45;&gt;common/services/blockchain/crypto/crypto.util.ts -->
<g id="edge25" class="edge"><title>common/services/blockchain/blockchain.service.ts&#45;&gt;common/services/blockchain/crypto/crypto.util.ts</title>
<path fill="none" stroke="#757575" d="M1331.36,-336.931C1383.01,-325.701 1464.69,-308.751 1536,-297.505 1567.73,-292.499 1602.16,-288.012 1634.22,-284.232"/>
<polygon fill="#757575" stroke="#757575" points="1635.01,-287.663 1644.54,-283.029 1634.2,-280.71 1635.01,-287.663"/>
</g>
<!-- common/services/blockchain/consensus/consensus.ts&#45;&gt;common/services/blockchain/entities/block.model.ts -->
<g id="edge35" class="edge"><title>common/services/blockchain/consensus/consensus.ts&#45;&gt;common/services/blockchain/entities/block.model.ts</title>
<path fill="none" stroke="#757575" d="M1939.31,-120.823C2112.32,-132.65 2353.94,-151.903 2395,-169.505 2480.46,-206.138 2555.96,-291.586 2586.99,-330.086"/>
<polygon fill="#757575" stroke="#757575" points="2584.3,-332.319 2593.26,-337.975 2589.78,-327.966 2584.3,-332.319"/>
</g>
<!-- common/services/blockchain/consensus/consensus.ts&#45;&gt;common/services/blockchain/entities/proof.model.ts -->
<g id="edge36" class="edge"><title>common/services/blockchain/consensus/consensus.ts&#45;&gt;common/services/blockchain/entities/proof.model.ts</title>
<path fill="none" stroke="#757575" d="M1939.11,-100.774C2066.97,-97.6865 2242.6,-99.8624 2395,-124.505 2616.06,-160.247 2868.73,-256.528 2962.21,-294.146"/>
<polygon fill="#757575" stroke="#757575" points="2960.94,-297.41 2971.52,-297.914 2963.57,-290.921 2960.94,-297.41"/>
</g>
<!-- common/services/blockchain/consensus/consensus.basic.ts -->
<g id="node31" class="node"><title>common/services/blockchain/consensus/consensus.basic.ts</title>
<path fill="none" stroke="#c6c5fe" d="M1469.83,-181.005C1469.83,-181.005 1087.17,-181.005 1087.17,-181.005 1083.33,-181.005 1079.5,-177.171 1079.5,-173.338 1079.5,-173.338 1079.5,-165.671 1079.5,-165.671 1079.5,-161.838 1083.33,-158.005 1087.17,-158.005 1087.17,-158.005 1469.83,-158.005 1469.83,-158.005 1473.67,-158.005 1477.5,-161.838 1477.5,-165.671 1477.5,-165.671 1477.5,-173.338 1477.5,-173.338 1477.5,-177.171 1473.67,-181.005 1469.83,-181.005"/>
<text text-anchor="middle" x="1278.5" y="-165.805" font-family="Arial" font-size="14.00" fill="#c6c5fe">common/services/blockchain/consensus/consensus.basic.ts</text>
</g>
<!-- common/services/blockchain/consensus/consensus.basic.ts&#45;&gt;common/services/blockchain/entities/block.model.ts -->
<g id="edge33" class="edge"><title>common/services/blockchain/consensus/consensus.basic.ts&#45;&gt;common/services/blockchain/entities/block.model.ts</title>
<path fill="none" stroke="#757575" d="M1477.65,-168.655C1497.36,-168.594 1517.07,-168.541 1536,-168.505 1734.22,-168.118 1785.77,-140.447 1982,-168.505 2208.48,-200.887 2467.77,-296.623 2563.72,-334.158"/>
<polygon fill="#757575" stroke="#757575" points="2562.7,-337.517 2573.28,-337.919 2565.26,-331.002 2562.7,-337.517"/>
</g>
<!-- common/services/blockchain/consensus/consensus.basic.ts&#45;&gt;common/services/blockchain/entities/proof.model.ts -->
<g id="edge34" class="edge"><title>common/services/blockchain/consensus/consensus.basic.ts&#45;&gt;common/services/blockchain/entities/proof.model.ts</title>
<path fill="none" stroke="#757575" d="M1306.55,-157.923C1352.61,-138.896 1449.69,-101.808 1536,-88.5045 2080.54,-4.56789 2263.59,75.4878 2775,-129.505 2865.53,-165.792 2948.55,-251.421 2982.86,-290.028"/>
<polygon fill="#757575" stroke="#757575" points="2980.57,-292.724 2989.79,-297.939 2985.83,-288.111 2980.57,-292.724"/>
</g>
<!-- common/services/blockchain/consensus/consensus.basic.ts&#45;&gt;common/services/blockchain/consensus/consensus.ts -->
<g id="edge31" class="edge"><title>common/services/blockchain/consensus/consensus.basic.ts&#45;&gt;common/services/blockchain/consensus/consensus.ts</title>
<path fill="none" stroke="#757575" d="M1396.25,-157.971C1429.84,-154.05 1466.46,-149.193 1500,-143.505 1516.16,-140.764 1519.84,-138.239 1536,-135.505 1566.47,-130.349 1599.46,-125.885 1630.46,-122.181"/>
<polygon fill="#757575" stroke="#757575" points="1630.93,-125.65 1640.45,-121.005 1630.11,-118.698 1630.93,-125.65"/>
</g>
<!-- common/services/blockchain/consensus/consensus.basic.ts&#45;&gt;common/services/blockchain/crypto/crypto.util.ts -->
<g id="edge32" class="edge"><title>common/services/blockchain/consensus/consensus.basic.ts&#45;&gt;common/services/blockchain/crypto/crypto.util.ts</title>
<path fill="none" stroke="#757575" d="M1308.97,-181.069C1356.12,-199.053 1451.79,-233.426 1536,-250.505 1552.73,-253.898 1570.28,-256.745 1587.88,-259.134"/>
<polygon fill="#757575" stroke="#757575" points="1587.87,-262.662 1598.24,-260.488 1588.78,-255.721 1587.87,-262.662"/>
</g>
<!-- common/services/blockchain/consensus/consensus.config.ts -->
<g id="node32" class="node"><title>common/services/blockchain/consensus/consensus.config.ts</title>
<path fill="none" stroke="#cfffac" d="M1952.83,-201.005C1952.83,-201.005 1565.17,-201.005 1565.17,-201.005 1561.33,-201.005 1557.5,-197.171 1557.5,-193.338 1557.5,-193.338 1557.5,-185.671 1557.5,-185.671 1557.5,-181.838 1561.33,-178.005 1565.17,-178.005 1565.17,-178.005 1952.83,-178.005 1952.83,-178.005 1956.67,-178.005 1960.5,-181.838 1960.5,-185.671 1960.5,-185.671 1960.5,-193.338 1960.5,-193.338 1960.5,-197.171 1956.67,-201.005 1952.83,-201.005"/>
<text text-anchor="middle" x="1759" y="-185.805" font-family="Arial" font-size="14.00" fill="#cfffac">common/services/blockchain/consensus/consensus.config.ts</text>
</g>
<!-- common/services/blockchain/consensus/consensus.basic.ts&#45;&gt;common/services/blockchain/consensus/consensus.config.ts -->
<g id="edge30" class="edge"><title>common/services/blockchain/consensus/consensus.basic.ts&#45;&gt;common/services/blockchain/consensus/consensus.config.ts</title>
<path fill="none" stroke="#757575" d="M1477.58,-177.784C1500.53,-178.743 1524.01,-179.724 1547.13,-180.691"/>
<polygon fill="#757575" stroke="#757575" points="1547.23,-184.198 1557.37,-181.119 1547.52,-177.204 1547.23,-184.198"/>
</g>
<!-- common/services/blockchain/validators/blockchain&#45;validator.basic.ts -->
<g id="node33" class="node"><title>common/services/blockchain/validators/blockchain&#45;validator.basic.ts</title>
<path fill="none" stroke="#c6c5fe" d="M1492.33,-440.005C1492.33,-440.005 1064.67,-440.005 1064.67,-440.005 1060.83,-440.005 1057,-436.171 1057,-432.338 1057,-432.338 1057,-424.671 1057,-424.671 1057,-420.838 1060.83,-417.005 1064.67,-417.005 1064.67,-417.005 1492.33,-417.005 1492.33,-417.005 1496.17,-417.005 1500,-420.838 1500,-424.671 1500,-424.671 1500,-432.338 1500,-432.338 1500,-436.171 1496.17,-440.005 1492.33,-440.005"/>
<text text-anchor="middle" x="1278.5" y="-424.805" font-family="Arial" font-size="14.00" fill="#c6c5fe">common/services/blockchain/validators/blockchain&#45;validator.basic.ts</text>
</g>
<!-- common/services/blockchain/validators/blockchain&#45;validator.basic.ts&#45;&gt;common/services/blockchain/entities/blockchain.model.ts -->
<g id="edge42" class="edge"><title>common/services/blockchain/validators/blockchain&#45;validator.basic.ts&#45;&gt;common/services/blockchain/entities/blockchain.model.ts</title>
<path fill="none" stroke="#757575" d="M1452.63,-440.032C1468.93,-443.754 1484.97,-448.493 1500,-454.505 1518.57,-461.931 1517.33,-474.339 1536,-481.505 1559.4,-490.484 1852.92,-514.433 2043.46,-529.216"/>
<polygon fill="#757575" stroke="#757575" points="2043.35,-532.718 2053.59,-530.001 2043.89,-525.739 2043.35,-532.718"/>
</g>
<!-- common/services/blockchain/validators/blockchain&#45;validator.basic.ts&#45;&gt;common/services/blockchain/crypto/crypto.util.ts -->
<g id="edge41" class="edge"><title>common/services/blockchain/validators/blockchain&#45;validator.basic.ts&#45;&gt;common/services/blockchain/crypto/crypto.util.ts</title>
<path fill="none" stroke="#757575" d="M1327.19,-416.905C1372.11,-405.657 1441.11,-387.541 1500,-368.505 1579.4,-342.839 1670.34,-307.133 1720.25,-286.972"/>
<polygon fill="#757575" stroke="#757575" points="1721.72,-290.154 1729.68,-283.155 1719.09,-283.667 1721.72,-290.154"/>
</g>
<!-- common/services/blockchain/validators/blockchain&#45;validator.ts -->
<g id="node34" class="node"><title>common/services/blockchain/validators/blockchain&#45;validator.ts</title>
<path fill="none" stroke="#c6c5fe" d="M1954.33,-557.005C1954.33,-557.005 1563.67,-557.005 1563.67,-557.005 1559.83,-557.005 1556,-553.171 1556,-549.338 1556,-549.338 1556,-541.671 1556,-541.671 1556,-537.838 1559.83,-534.005 1563.67,-534.005 1563.67,-534.005 1954.33,-534.005 1954.33,-534.005 1958.17,-534.005 1962,-537.838 1962,-541.671 1962,-541.671 1962,-549.338 1962,-549.338 1962,-553.171 1958.17,-557.005 1954.33,-557.005"/>
<text text-anchor="middle" x="1759" y="-541.805" font-family="Arial" font-size="14.00" fill="#c6c5fe">common/services/blockchain/validators/blockchain&#45;validator.ts</text>
</g>
<!-- common/services/blockchain/validators/blockchain&#45;validator.basic.ts&#45;&gt;common/services/blockchain/validators/blockchain&#45;validator.ts -->
<g id="edge43" class="edge"><title>common/services/blockchain/validators/blockchain&#45;validator.basic.ts&#45;&gt;common/services/blockchain/validators/blockchain&#45;validator.ts</title>
<path fill="none" stroke="#757575" d="M1473.22,-440.114C1482.6,-444.109 1491.6,-448.865 1500,-454.505 1527.42,-472.91 1508.57,-501.11 1536,-519.505 1541.68,-523.317 1547.64,-526.727 1553.8,-529.773"/>
<polygon fill="#757575" stroke="#757575" points="1552.42,-532.989 1562.97,-533.979 1555.34,-526.627 1552.42,-532.989"/>
</g>
<!-- common/services/blockchain/validators/blockchain&#45;validator.ts&#45;&gt;common/services/blockchain/entities/blockchain.model.ts -->
<g id="edge44" class="edge"><title>common/services/blockchain/validators/blockchain&#45;validator.ts&#45;&gt;common/services/blockchain/entities/blockchain.model.ts</title>
<path fill="none" stroke="#757575" d="M1962.22,-543.689C1977.27,-543.554 1992.44,-543.418 2007.46,-543.283"/>
<polygon fill="#757575" stroke="#757575" points="2007.86,-546.779 2017.83,-543.19 2007.8,-539.78 2007.86,-546.779"/>
</g>
<!-- common/services/security/ecc.service.ts&#45;&gt;common/entities/identity/personal&#45;identity.entity.ts -->
<g id="edge50" class="edge"><title>common/services/security/ecc.service.ts&#45;&gt;common/entities/identity/personal&#45;identity.entity.ts</title>
<path fill="none" stroke="#757575" d="M1895.78,-674.6C1938.73,-676.528 1986.8,-678.686 2032.01,-680.716"/>
<polygon fill="#757575" stroke="#757575" points="2032.07,-684.222 2042.22,-681.174 2032.39,-677.229 2032.07,-684.222"/>
</g>
<!-- di/arguments/argument.handler.ts&#45;&gt;common/entities/config/node&#45;configuration.model.ts -->
<g id="edge51" class="edge"><title>di/arguments/argument.handler.ts&#45;&gt;common/entities/config/node&#45;configuration.model.ts</title>
<path fill="none" stroke="#757575" d="M654.855,-925.766C834.019,-928.846 1194.53,-932.967 1500,-923.505 1528.19,-922.631 1558.08,-921.223 1587.15,-919.594"/>
<polygon fill="#757575" stroke="#757575" points="1587.61,-923.074 1597.39,-919.009 1587.21,-916.085 1587.61,-923.074"/>
</g>
<!-- di/di.register.ts&#45;&gt;di/di.interface.ts -->
<g id="edge57" class="edge"><title>di/di.register.ts&#45;&gt;di/di.interface.ts</title>
<path fill="none" stroke="#757575" d="M596.083,-681.166C727.94,-670.589 1065.72,-643.493 1210.25,-631.899"/>
<polygon fill="#757575" stroke="#757575" points="1210.63,-635.38 1220.32,-631.092 1210.07,-628.403 1210.63,-635.38"/>
</g>
<!-- di/services/blockchain.di.ts -->
<g id="node40" class="node"><title>di/services/blockchain.di.ts</title>
<path fill="none" stroke="#c6c5fe" d="M952.333,-400.005C952.333,-400.005 782.667,-400.005 782.667,-400.005 778.833,-400.005 775,-396.171 775,-392.338 775,-392.338 775,-384.671 775,-384.671 775,-380.838 778.833,-377.005 782.667,-377.005 782.667,-377.005 952.333,-377.005 952.333,-377.005 956.167,-377.005 960,-380.838 960,-384.671 960,-384.671 960,-392.338 960,-392.338 960,-396.171 956.167,-400.005 952.333,-400.005"/>
<text text-anchor="middle" x="867.5" y="-384.805" font-family="Arial" font-size="14.00" fill="#c6c5fe">di/services/blockchain.di.ts</text>
</g>
<!-- di/di.register.ts&#45;&gt;di/services/blockchain.di.ts -->
<g id="edge58" class="edge"><title>di/di.register.ts&#45;&gt;di/services/blockchain.di.ts</title>
<path fill="none" stroke="#757575" d="M554.721,-673.862C604.4,-628.392 785.585,-462.562 846.423,-406.88"/>
<polygon fill="#757575" stroke="#757575" points="848.853,-409.4 853.867,-400.067 844.127,-404.237 848.853,-409.4"/>
</g>
<!-- di/services/logger.di.ts -->
<g id="node41" class="node"><title>di/services/logger.di.ts</title>
<path fill="none" stroke="#c6c5fe" d="M939.333,-796.005C939.333,-796.005 795.667,-796.005 795.667,-796.005 791.833,-796.005 788,-792.171 788,-788.338 788,-788.338 788,-780.671 788,-780.671 788,-776.838 791.833,-773.005 795.667,-773.005 795.667,-773.005 939.333,-773.005 939.333,-773.005 943.167,-773.005 947,-776.838 947,-780.671 947,-780.671 947,-788.338 947,-788.338 947,-792.171 943.167,-796.005 939.333,-796.005"/>
<text text-anchor="middle" x="867.5" y="-780.805" font-family="Arial" font-size="14.00" fill="#c6c5fe">di/services/logger.di.ts</text>
</g>
<!-- di/di.register.ts&#45;&gt;di/services/logger.di.ts -->
<g id="edge59" class="edge"><title>di/di.register.ts&#45;&gt;di/services/logger.di.ts</title>
<path fill="none" stroke="#757575" d="M579.859,-697.055C639.255,-715.175 754.23,-750.253 819.058,-770.031"/>
<polygon fill="#757575" stroke="#757575" points="818.045,-773.381 828.631,-772.951 820.088,-766.686 818.045,-773.381"/>
</g>
<!-- di/services/network.rabbitmq.di.ts -->
<g id="node42" class="node"><title>di/services/network.rabbitmq.di.ts</title>
<path fill="none" stroke="#c6c5fe" d="M973.333,-716.005C973.333,-716.005 761.667,-716.005 761.667,-716.005 757.833,-716.005 754,-712.171 754,-708.338 754,-708.338 754,-700.671 754,-700.671 754,-696.838 757.833,-693.005 761.667,-693.005 761.667,-693.005 973.333,-693.005 973.333,-693.005 977.167,-693.005 981,-696.838 981,-700.671 981,-700.671 981,-708.338 981,-708.338 981,-712.171 977.167,-716.005 973.333,-716.005"/>
<text text-anchor="middle" x="867.5" y="-700.805" font-family="Arial" font-size="14.00" fill="#c6c5fe">di/services/network.rabbitmq.di.ts</text>
</g>
<!-- di/di.register.ts&#45;&gt;di/services/network.rabbitmq.di.ts -->
<g id="edge60" class="edge"><title>di/di.register.ts&#45;&gt;di/services/network.rabbitmq.di.ts</title>
<path fill="none" stroke="#757575" d="M596.314,-688.685C636.487,-691.037 692.816,-694.335 743.652,-697.312"/>
<polygon fill="#757575" stroke="#757575" points="743.552,-700.812 753.739,-697.902 743.961,-693.824 743.552,-700.812"/>
</g>
<!-- di/services/repository.di.ts -->
<g id="node43" class="node"><title>di/services/repository.di.ts</title>
<path fill="none" stroke="#c6c5fe" d="M950.833,-598.005C950.833,-598.005 784.167,-598.005 784.167,-598.005 780.333,-598.005 776.5,-594.171 776.5,-590.338 776.5,-590.338 776.5,-582.671 776.5,-582.671 776.5,-578.838 780.333,-575.005 784.167,-575.005 784.167,-575.005 950.833,-575.005 950.833,-575.005 954.667,-575.005 958.5,-578.838 958.5,-582.671 958.5,-582.671 958.5,-590.338 958.5,-590.338 958.5,-594.171 954.667,-598.005 950.833,-598.005"/>
<text text-anchor="middle" x="867.5" y="-582.805" font-family="Arial" font-size="14.00" fill="#c6c5fe">di/services/repository.di.ts</text>
</g>
<!-- di/di.register.ts&#45;&gt;di/services/repository.di.ts -->
<g id="edge61" class="edge"><title>di/di.register.ts&#45;&gt;di/services/repository.di.ts</title>
<path fill="none" stroke="#757575" d="M579.859,-673.954C639.255,-655.834 754.23,-620.756 819.058,-600.978"/>
<polygon fill="#757575" stroke="#757575" points="820.088,-604.323 828.631,-598.058 818.045,-597.628 820.088,-604.323"/>
</g>
<!-- server/db/vault.connection.ts&#45;&gt;common/entities/config/node&#45;configuration.model.ts -->
<g id="edge79" class="edge"><title>server/db/vault.connection.ts&#45;&gt;common/entities/config/node&#45;configuration.model.ts</title>
<path fill="none" stroke="#757575" d="M1377.2,-875.671C1444.17,-881.27 1534.24,-888.799 1609.97,-895.13"/>
<polygon fill="#757575" stroke="#757575" points="1609.82,-898.63 1620.08,-895.975 1610.41,-891.654 1609.82,-898.63"/>
</g>
<!-- server/db/vault.connection.ts&#45;&gt;common/logger/server&#45;logger.interface.ts -->
<g id="edge80" class="edge"><title>server/db/vault.connection.ts&#45;&gt;common/logger/server&#45;logger.interface.ts</title>
<path fill="none" stroke="#757575" d="M1377.04,-873.786C1417.09,-872.509 1462.71,-865.851 1500,-846.505 1521.82,-835.183 1514.15,-815.77 1536,-804.505 1558.55,-792.881 1584.1,-785.899 1609.65,-781.943"/>
<polygon fill="#757575" stroke="#757575" points="1610.39,-785.373 1619.81,-780.524 1609.42,-778.44 1610.39,-785.373"/>
</g>
<!-- server/db/vault.schema.ts -->
<g id="node44" class="node"><title>server/db/vault.schema.ts</title>
<path fill="none" stroke="#c6c5fe" d="M1840.33,-878.005C1840.33,-878.005 1677.67,-878.005 1677.67,-878.005 1673.83,-878.005 1670,-874.171 1670,-870.338 1670,-870.338 1670,-862.671 1670,-862.671 1670,-858.838 1673.83,-855.005 1677.67,-855.005 1677.67,-855.005 1840.33,-855.005 1840.33,-855.005 1844.17,-855.005 1848,-858.838 1848,-862.671 1848,-862.671 1848,-870.338 1848,-870.338 1848,-874.171 1844.17,-878.005 1840.33,-878.005"/>
<text text-anchor="middle" x="1759" y="-862.805" font-family="Arial" font-size="14.00" fill="#c6c5fe">server/db/vault.schema.ts</text>
</g>
<!-- server/db/vault.connection.ts&#45;&gt;server/db/vault.schema.ts -->
<g id="edge81" class="edge"><title>server/db/vault.connection.ts&#45;&gt;server/db/vault.schema.ts</title>
<path fill="none" stroke="#757575" d="M1377.2,-867.3C1459.59,-867.128 1576.95,-866.883 1659.56,-866.71"/>
<polygon fill="#757575" stroke="#757575" points="1659.71,-870.21 1669.71,-866.689 1659.7,-863.21 1659.71,-870.21"/>
</g>
<!-- di/services/blockchain.di.ts&#45;&gt;common/services/blockchain/blockchain.config.ts -->
<g id="edge62" class="edge"><title>di/services/blockchain.di.ts&#45;&gt;common/services/blockchain/blockchain.config.ts</title>
<path fill="none" stroke="#757575" d="M899.105,-376.99C936.058,-363.465 1000.32,-341.147 1057,-327.505 1242.62,-282.831 1461.19,-256.651 1604.31,-242.974"/>
<polygon fill="#757575" stroke="#757575" points="1604.85,-246.438 1614.48,-242.011 1604.19,-239.469 1604.85,-246.438"/>
</g>
<!-- di/services/blockchain.di.ts&#45;&gt;common/services/blockchain/blockchain.service.interface.ts -->
<g id="edge63" class="edge"><title>di/services/blockchain.di.ts&#45;&gt;common/services/blockchain/blockchain.service.interface.ts</title>
<path fill="none" stroke="#757575" d="M960.064,-389.902C1082.97,-392.089 1308.05,-397.183 1500,-407.505 1537.21,-409.506 1577.4,-412.31 1614.72,-415.186"/>
<polygon fill="#757575" stroke="#757575" points="1614.93,-418.713 1625.17,-415.999 1615.47,-411.734 1614.93,-418.713"/>
</g>
<!-- di/services/blockchain.di.ts&#45;&gt;common/services/blockchain/blockchain.service.ts -->
<g id="edge64" class="edge"><title>di/services/blockchain.di.ts&#45;&gt;common/services/blockchain/blockchain.service.ts</title>
<path fill="none" stroke="#757575" d="M960.033,-379.553C1015.91,-374.088 1088.18,-367.02 1149.65,-361.008"/>
<polygon fill="#757575" stroke="#757575" points="1150.2,-364.471 1159.81,-360.014 1149.52,-357.504 1150.2,-364.471"/>
</g>
<!-- di/services/blockchain.di.ts&#45;&gt;common/services/blockchain/consensus/consensus.ts -->
<g id="edge66" class="edge"><title>di/services/blockchain.di.ts&#45;&gt;common/services/blockchain/consensus/consensus.ts</title>
<path fill="none" stroke="#757575" d="M873.313,-376.912C890.79,-336.511 955.272,-201.503 1057,-148.505 1266.97,-39.1128 1561.88,-73.2705 1691.95,-96.1185"/>
<polygon fill="#757575" stroke="#757575" points="1691.69,-99.6274 1702.15,-97.9468 1692.92,-92.7372 1691.69,-99.6274"/>
</g>
<!-- di/services/blockchain.di.ts&#45;&gt;common/services/blockchain/consensus/consensus.basic.ts -->
<g id="edge65" class="edge"><title>di/services/blockchain.di.ts&#45;&gt;common/services/blockchain/consensus/consensus.basic.ts</title>
<path fill="none" stroke="#757575" d="M882.358,-376.78C912.504,-351.712 986.965,-292.127 1057,-254.505 1113.74,-224.026 1183.8,-198.965 1229.52,-184.138"/>
<polygon fill="#757575" stroke="#757575" points="1230.72,-187.428 1239.17,-181.041 1228.58,-180.762 1230.72,-187.428"/>
</g>
<!-- di/services/blockchain.di.ts&#45;&gt;common/services/blockchain/validators/blockchain&#45;validator.basic.ts -->
<g id="edge67" class="edge"><title>di/services/blockchain.di.ts&#45;&gt;common/services/blockchain/validators/blockchain&#45;validator.basic.ts</title>
<path fill="none" stroke="#757575" d="M960.033,-397.456C1015.91,-402.921 1088.18,-409.989 1149.65,-416.001"/>
<polygon fill="#757575" stroke="#757575" points="1149.52,-419.505 1159.81,-416.995 1150.2,-412.538 1149.52,-419.505"/>
</g>
<!-- di/services/blockchain.di.ts&#45;&gt;common/services/blockchain/validators/blockchain&#45;validator.ts -->
<g id="edge68" class="edge"><title>di/services/blockchain.di.ts&#45;&gt;common/services/blockchain/validators/blockchain&#45;validator.ts</title>
<path fill="none" stroke="#757575" d="M897.679,-400.014C934.279,-413.929 999.251,-436.919 1057,-448.505 1250.79,-487.381 1317.29,-412.127 1500,-487.505 1519.25,-495.447 1516.9,-509.201 1536,-517.505 1549.03,-523.167 1562.86,-527.784 1577,-531.537"/>
<polygon fill="#757575" stroke="#757575" points="1576.29,-534.966 1586.84,-534 1577.99,-528.176 1576.29,-534.966"/>
</g>
<!-- di/services/blockchain.di.ts&#45;&gt;di/di.interface.ts -->
<g id="edge69" class="edge"><title>di/services/blockchain.di.ts&#45;&gt;di/di.interface.ts</title>
<path fill="none" stroke="#757575" d="M881.955,-400.152C911.901,-425.692 986.948,-487.599 1057,-528.505 1116.65,-563.338 1190.95,-593.958 1236.27,-611.34"/>
<polygon fill="#757575" stroke="#757575" points="1235.17,-614.666 1245.76,-614.949 1237.66,-608.123 1235.17,-614.666"/>
</g>
<!-- di/services/logger.di.ts&#45;&gt;common/entities/config/node&#45;configuration.model.ts -->
<g id="edge70" class="edge"><title>di/services/logger.di.ts&#45;&gt;common/entities/config/node&#45;configuration.model.ts</title>
<path fill="none" stroke="#757575" d="M883.551,-796.026C914.177,-818.689 986.805,-868.507 1057,-887.505 1260.08,-942.466 1508.4,-932.342 1648.35,-919.956"/>
<polygon fill="#757575" stroke="#757575" points="1649.01,-923.411 1658.65,-919.023 1648.38,-916.439 1649.01,-923.411"/>
</g>
<!-- di/services/logger.di.ts&#45;&gt;common/logger/server&#45;logger.interface.ts -->
<g id="edge71" class="edge"><title>di/services/logger.di.ts&#45;&gt;common/logger/server&#45;logger.interface.ts</title>
<path fill="none" stroke="#757575" d="M947.32,-778.366C981.074,-776.028 1020.95,-773.651 1057,-772.505 1253.79,-766.247 1303.16,-767.929 1500,-772.505 1535.55,-773.331 1573.83,-774.796 1609.73,-776.426"/>
<polygon fill="#757575" stroke="#757575" points="1609.64,-779.926 1619.79,-776.89 1609.97,-772.933 1609.64,-779.926"/>
</g>
<!-- di/services/logger.di.ts&#45;&gt;common/logger/server&#45;logger.service.ts -->
<g id="edge72" class="edge"><title>di/services/logger.di.ts&#45;&gt;common/logger/server&#45;logger.service.ts</title>
<path fill="none" stroke="#757575" d="M947.359,-792.603C1006.2,-798.645 1087.7,-807.014 1155,-813.925"/>
<polygon fill="#757575" stroke="#757575" points="1154.94,-817.438 1165.25,-814.977 1155.66,-810.474 1154.94,-817.438"/>
</g>
<!-- di/services/logger.di.ts&#45;&gt;di/di.interface.ts -->
<g id="edge73" class="edge"><title>di/services/logger.di.ts&#45;&gt;di/di.interface.ts</title>
<path fill="none" stroke="#757575" d="M925.999,-772.944C957.285,-764.151 994.829,-749.211 1021,-724.505 1048.76,-698.295 1025.8,-668.515 1057,-646.505 1101.04,-615.435 1162.98,-612.399 1210.01,-616.01"/>
<polygon fill="#757575" stroke="#757575" points="1209.83,-619.508 1220.1,-616.903 1210.45,-612.535 1209.83,-619.508"/>
</g>
<!-- di/services/network.rabbitmq.di.ts&#45;&gt;common/network/rabbitmq/rabbit&#45;mq.config.ts -->
<g id="edge74" class="edge"><title>di/services/network.rabbitmq.di.ts&#45;&gt;common/network/rabbitmq/rabbit&#45;mq.config.ts</title>
<path fill="none" stroke="#757575" d="M981.073,-694.321C1030.18,-689.879 1088.21,-684.629 1139.85,-679.957"/>
<polygon fill="#757575" stroke="#757575" points="1140.45,-683.417 1150.09,-679.031 1139.82,-676.446 1140.45,-683.417"/>
</g>
<!-- di/services/network.rabbitmq.di.ts&#45;&gt;di/di.interface.ts -->
<g id="edge75" class="edge"><title>di/services/network.rabbitmq.di.ts&#45;&gt;di/di.interface.ts</title>
<path fill="none" stroke="#757575" d="M980.295,-692.909C994.379,-689.303 1008.29,-684.609 1021,-678.505 1040.3,-669.236 1037.35,-655.009 1057,-646.505 1105.27,-625.608 1164.94,-621.337 1210.03,-621.888"/>
<polygon fill="#757575" stroke="#757575" points="1210.22,-625.392 1220.29,-622.099 1210.36,-618.394 1210.22,-625.392"/>
</g>
<!-- di/services/repository.di.ts&#45;&gt;common/repositories/identity/personal&#45;identity.interface.repository.ts -->
<g id="edge76" class="edge"><title>di/services/repository.di.ts&#45;&gt;common/repositories/identity/personal&#45;identity.interface.repository.ts</title>
<path fill="none" stroke="#757575" d="M958.503,-587.657C1081.06,-589.582 1307.27,-594.397 1500,-605.505 1541.98,-607.924 1587.73,-611.513 1628.88,-615.093"/>
<polygon fill="#757575" stroke="#757575" points="1628.7,-618.59 1638.96,-615.978 1629.31,-611.617 1628.7,-618.59"/>
</g>
<!-- di/services/repository.di.ts&#45;&gt;common/repositories/identity/personal&#45;identity.repository.ts -->
<g id="edge77" class="edge"><title>di/services/repository.di.ts&#45;&gt;common/repositories/identity/personal&#45;identity.repository.ts</title>
<path fill="none" stroke="#757575" d="M928.849,-574.995C1002.85,-560.882 1128.11,-536.995 1206.62,-522.022"/>
<polygon fill="#757575" stroke="#757575" points="1207.74,-525.372 1216.9,-520.061 1206.42,-518.496 1207.74,-525.372"/>
</g>
<!-- di/services/repository.di.ts&#45;&gt;di/di.interface.ts -->
<g id="edge78" class="edge"><title>di/services/repository.di.ts&#45;&gt;di/di.interface.ts</title>
<path fill="none" stroke="#757575" d="M958.51,-595.307C1034.46,-602.735 1141.5,-613.204 1210.2,-619.922"/>
<polygon fill="#757575" stroke="#757575" points="1210.17,-623.436 1220.46,-620.926 1210.85,-616.47 1210.17,-623.436"/>
</g>
<!-- server/db/vault.schema.ts&#45;&gt;common/entities/identity/common&#45;identity.entity.ts -->
<g id="edge82" class="edge"><title>server/db/vault.schema.ts&#45;&gt;common/entities/identity/common&#45;identity.entity.ts</title>
<path fill="none" stroke="#757575" d="M1848.21,-861.408C1889.11,-858.216 1938.25,-853.2 1982,-845.505 2043.85,-834.626 2113.69,-815.343 2158.59,-802.015"/>
<polygon fill="#757575" stroke="#757575" points="2159.76,-805.319 2168.33,-799.099 2157.75,-798.613 2159.76,-805.319"/>
</g>
<!-- server/db/vault.schema.ts&#45;&gt;common/entities/identity/personal&#45;identity.entity.ts -->
<g id="edge83" class="edge"><title>server/db/vault.schema.ts&#45;&gt;common/entities/identity/personal&#45;identity.entity.ts</title>
<path fill="none" stroke="#757575" d="M1848.26,-877.812C1892.16,-878.853 1943.84,-872.675 1982,-845.505 2013.43,-823.124 1990.27,-793.329 2018,-766.505 2051.53,-734.079 2100.47,-714.337 2139.95,-702.829"/>
<polygon fill="#757575" stroke="#757575" points="2141.08,-706.146 2149.76,-700.077 2139.19,-699.406 2141.08,-706.146"/>
</g>
</g>
</svg>
